<svg version="1.2" xmlns="http://www.w3.org/2000/svg" viewBox="0 0 61 285" width="61" height="285"><defs><filter x="-50%" y="-50%" width="200%" height="200%" id="f1"> <feGaussianBlur stdDeviation="2.6"/> </filter></defs><style>.a{filter:url(#f1)}.b{fill:#fff;stroke:#555;stroke-linejoin:round;stroke-width:.8}</style><path class="a" d="m15.8 4.9l13.2 24.9v37l-2.7 3.5v59.9c-5 1.8-8.3 6.5-8.3 11.8 0 5.3 3.4 10.1 8.4 11.8q-10.6 30.6-21.1 61.2c8.1 2.9 16.6 4.3 25.2 4.4 8.6-0.1 17.1-1.5 25.3-4.4l-21.2-61.2c5-1.7 8.4-6.5 8.4-11.8 0-5.3-3.3-10-8.3-11.8v-59.9l-2.7-3.5v-37l13.2-24.9z"/><path class="b" d="m15.8 4.9l13.2 24.9v37l-2.7 3.5v59.9c-5 1.8-8.3 6.5-8.3 11.8 0 5.3 3.4 10.1 8.4 11.8q-10.6 30.6-21.1 61.2c8.1 2.9 16.6 4.3 25.2 4.4 8.6-0.1 17.1-1.5 25.3-4.4l-21.2-61.2c5-1.7 8.4-6.5 8.4-11.8 0-5.3-3.3-10-8.3-11.8v-59.9l-2.7-3.5v-37l13.2-24.9z"/></svg>