<svg version="1.2" xmlns="http://www.w3.org/2000/svg" viewBox="0 0 28 235" width="28" height="235"><defs><filter x="-50%" y="-50%" width="200%" height="200%" id="f1"> <feGaussianBlur stdDeviation="2.4"/> </filter><linearGradient id="P" gradientUnits="userSpaceOnUse"/><linearGradient id="g1" x2="1" href="#P" gradientTransform="matrix(6.442,0,0,40.093,13.666,135.953)"><stop stop-color="#191919"/><stop offset="1" stop-color="#232323"/></linearGradient><linearGradient id="g2" x2="1" href="#P" gradientTransform="matrix(-3.73,-56.554,56.554,-3.73,14,125.112)"><stop stop-color="#191919"/><stop offset="1" stop-color="#232323"/></linearGradient><linearGradient id="g3" x2="1" href="#P" gradientTransform="matrix(3.401,-11.311,11.311,3.401,15.527,177.641)"><stop stop-color="#191919"/><stop offset="1" stop-color="#232323"/></linearGradient></defs><style>.a{filter:url(#f1)}.b{fill:#fff;stroke:#2d2d2d;stroke-linejoin:round;stroke-width:.8}.c{fill:url(#g1);stroke:#232323;stroke-linejoin:round;stroke-width:.8}.d{fill:url(#g2);stroke:#232323;stroke-linejoin:round;stroke-width:.8}.e{fill:url(#g3);stroke:#232323;stroke-linejoin:round;stroke-width:.8}</style><path class="a" d="m14 2.9l-5.1 13.5v87.7 8.5c-1.2 1.2-2 3-2 4.9 0 1.9 0.8 3.7 2 4.9v41.3q-0.8 0.6-1.4 1.4-0.6 0.7-1 1.6-0.4 0.8-0.6 1.8-0.3 0.9-0.3 1.9c0 1.1 0.2 2.1 0.7 3.2 0.4 1 1 1.9 1.8 2.7 0.8 0.7 1.7 1.4 2.7 1.8 1 0.4 2.1 0.6 3.2 0.6 1.1 0 2.2-0.2 3.2-0.6 1-0.4 1.9-1.1 2.7-1.8 0.8-0.8 1.4-1.7 1.8-2.7 0.5-1.1 0.7-2.1 0.7-3.2q0-1-0.3-1.9-0.2-1-0.6-1.8-0.4-0.9-1-1.6-0.6-0.8-1.4-1.4v-41.3c1.2-1.2 2-3 2-4.9 0-1.9-0.8-3.7-2-4.9v-7.4-1.1-87.7c0 0-5.1-13.5-5.1-13.5z"/><path class="b" d="m14 2.9l-5.1 13.5v88.8h10.2v-88.8z"/><path class="c" d="m8.9 104.1v63.7h5.1 5.1v-63.7z"/><path class="d" d="m6.9 117.5c0-3.9 3.2-7.1 7.1-7.1 3.9 0 7.1 3.2 7.1 7.1 0 3.9-3.2 7.1-7.1 7.1-3.9 0-7.1-3.2-7.1-7.1z"/><path class="e" d="m5.6 170.4c0-4.7 3.8-8.4 8.4-8.4 4.6 0 8.4 3.7 8.4 8.4 0 4.6-3.8 8.3-8.4 8.3-4.6 0-8.4-3.7-8.4-8.3z"/></svg>