<svg version="1.2" xmlns="http://www.w3.org/2000/svg" viewBox="0 0 1660 1620" width="1660" height="1620"><style>.a{fill:#333}</style><path fill-rule="evenodd" class="a" d="m767.7 438.9l-762.1 489.2c-3.6 2.3-5.6 6-5.6 10.2v94.1c0 3.9 1.7 7.3 4.7 9.6 3.1 2.4 6.8 3.1 10.6 2.1l759.8-203.6c5.4-1.4 9-6.1 9-11.6l2.3-379.8c0-4.5-2.3-8.5-6.3-10.7-4-2.2-8.6-2-12.4 0.5zm111.9-0.5c-4 2.2-6.3 6.2-6.3 10.7l2.3 379.8c0 5.5 3.6 10.2 9 11.6l759.8 203.6c3.8 1 7.4 0.3 10.5-2.1 3.1-2.3 4.8-5.7 4.8-9.6v-94.1c0-4.2-2-7.9-5.6-10.2l-762.1-489.2c-3.9-2.5-8.4-2.7-12.4-0.5z"/><path fill-rule="evenodd" class="a" d="m811.1 1266.1c5 2 8 6.6 8 11.9l-0.7 211.6c-0.1 5.1-3 9.5-7.7 11.6l-267.5 117.5c-4 1.8-8.4 1.5-12.1-1-3.7-2.4-5.8-6.2-5.8-10.7v-46.7q0-5.1 3.5-8.8l268.3-282.3c3.7-3.9 9-5.1 14-3.1zm62.7 3.1l268.2 282.3q3.5 3.7 3.5 8.8v46.7c0 4.5-2 8.3-5.8 10.7-3.7 2.5-8 2.8-12.1 1l-267.5-117.5c-4.7-2.1-7.6-6.5-7.6-11.6l-0.8-211.6c0-5.3 3.1-9.9 8-11.9 5-2 10.4-0.8 14.1 3.1z"/><path fill-rule="evenodd" class="a" d="m887.8 1408.4q0 1.5 0 3 0 1.9 0 3.9 0 1.9 0.1 3.9v3.9q0 1.9 0 3.8 0 2 0 3.9 0 1.9 0 3.8 0 3.8 0 7.6 0 1.9 0 3.8-0.1 1.9-0.1 3.8 0 3.7-0.1 7.5 0 1.8 0 3.7-0.1 1.8-0.1 3.6 0 1.9-0.1 3.7 0 1.8-0.1 3.6-0.1 3.6-0.3 7.2-0.1 1.8-0.2 3.6-0.1 1.7-0.2 3.5-0.2 3.5-0.4 6.9-0.2 1.8-0.3 3.5-0.2 1.7-0.3 3.4-0.2 1.7-0.4 3.3-0.1 1.7-0.3 3.4-0.2 1.6-0.4 3.3-0.2 1.6-0.5 3.2-0.2 1.7-0.5 3.3-0.2 1.6-0.5 3.2-0.2 1.6-0.5 3.1-0.3 1.6-0.6 3.2-0.3 1.5-0.6 3-0.4 1.6-0.7 3.1-0.4 1.5-0.8 3-0.7 3-1.6 5.9-0.4 1.4-0.8 2.8-1.8 5.7-4 11.1-0.6 1.3-1.2 2.6-1.2 2.6-2.4 5.2c-12.9 25.2-26.5 37.7-40.3 37.2-12.2-0.5-24.7-11.1-37.1-32.3q-1.4-2.4-2.7-4.9-1.3-2.6-2.4-5.2-0.6-1.3-1.2-2.6-2.2-5.4-4-11.1-0.4-1.4-0.9-2.8-0.8-2.9-1.6-5.9-0.3-1.5-0.7-3-0.3-1.5-0.7-3.1-0.3-1.5-0.6-3-0.3-1.6-0.6-3.2-0.3-1.5-0.6-3.1-0.2-1.6-0.5-3.2-0.2-1.6-0.4-3.3-0.3-1.6-0.5-3.2-0.2-1.7-0.4-3.3-0.2-1.7-0.4-3.4-0.1-1.6-0.3-3.3-0.2-1.7-0.3-3.4-0.2-1.7-0.3-3.5-0.3-3.4-0.5-6.9-0.1-1.8-0.2-3.5-0.1-1.8-0.1-3.6-0.2-3.6-0.3-7.2-0.1-1.8-0.1-3.6-0.1-1.8-0.1-3.7-0.1-1.8-0.1-3.6 0-1.9-0.1-3.7 0-3.8 0-7.5-0.1-1.9-0.1-3.8 0-1.9 0-3.8 0-3.8 0-7.6 0-1.9 0-3.8 0-1.9 0-3.9 0-1.9 0-3.8v-3.9q0-2 0-3.9 0-2 0.1-3.9 0-1.5 0-3h-20.6c-14.8 0-26.7-11.9-27.3-26.7l-37.3-913.4q0-0.3 0-0.5v-0.1q0-4.8 0-9.6 0-4.9 0-9.7 0-4.8 0-9.6v-9.6q0-4.8-0.1-9.6 0-4.7 0-9.5 0-4.7 0-9.4 0-9.5 0-18.8 0.1-4.7 0.1-9.4 0-4.6 0.1-9.3 0-9.2 0.2-18.4 0-4.6 0.1-9.1 0.1-4.6 0.2-9.1 0.1-4.5 0.2-9 0.2-4.5 0.3-9 0.3-8.9 0.7-17.7 0.2-4.4 0.4-8.8 0.3-4.3 0.5-8.7 0.5-8.6 1.2-17.1 0.3-4.3 0.7-8.5 0.3-4.2 0.7-8.4 0.4-4.2 0.9-8.3 0.4-4.2 0.9-8.2 0.5-4.1 1-8.2 0.5-4.1 1.1-8.1 0.5-4 1.2-7.9 0.6-4 1.2-7.9 0.7-3.9 1.4-7.8 0.7-3.9 1.5-7.7 0.7-3.8 1.5-7.6 0.8-3.8 1.7-7.5 0.9-3.8 1.8-7.4 1.9-7.4 3.9-14.5 1.1-3.6 2.2-7.1c54.8-174.3 180.2-174.3 235.1 0q1.1 3.5 2.1 7.1 2.1 7.1 4 14.5 0.9 3.6 1.8 7.4 0.8 3.7 1.6 7.5 0.9 3.8 1.6 7.6 0.8 3.8 1.5 7.7 0.7 3.9 1.4 7.8 0.6 3.9 1.2 7.9 0.6 3.9 1.2 7.9 0.6 4 1.1 8.1 0.5 4.1 1 8.2 0.5 4 0.9 8.2 0.4 4.1 0.8 8.3 0.4 4.2 0.8 8.4 0.4 4.2 0.7 8.5 0.6 8.5 1.2 17.1 0.2 4.4 0.4 8.7 0.3 4.4 0.5 8.8 0.4 8.8 0.7 17.7 0.1 4.5 0.2 9 0.2 4.5 0.3 9 0.1 4.5 0.2 9.1 0.1 4.5 0.1 9.1 0.1 9.2 0.2 18.4 0.1 4.7 0.1 9.3 0 4.7 0 9.4 0.1 9.3 0.1 18.8 0 4.7-0.1 9.4 0 4.8 0 9.5 0 4.8 0 9.6v9.6q0 4.8 0 9.6 0 4.8-0.1 9.7 0 4.8 0 9.6v0.1q0 0.2 0 0.5l-37.3 913.4c-0.6 14.8-12.4 26.7-27.2 26.7zm-201.1-940.1q0-0.3 0-0.5z"/></svg>