<svg version="1.2" xmlns="http://www.w3.org/2000/svg" viewBox="0 0 45 180" width="45" height="180"><defs><filter x="-50%" y="-50%" width="200%" height="200%" id="f1"> <feGaussianBlur stdDeviation="2"/> </filter><linearGradient id="P" gradientUnits="userSpaceOnUse"/><radialGradient id="g1" cx="0" cy="0" r="1" href="#P" gradientTransform="matrix(23.156,-24.889,24.889,23.156,22.5,119.592)"><stop stop-color="#141414"/><stop offset="1" stop-color="#232323"/></radialGradient><radialGradient id="g2" cx="0" cy="0" r="1" href="#P" gradientTransform="matrix(9.723,0,0,9.723,22.501,80.561)"><stop stop-color="#141414"/><stop offset="1" stop-color="#232323"/></radialGradient><radialGradient id="g3" cx="0" cy="0" r="1" href="#P" gradientTransform="matrix(7.946,0,0,7.946,22.5,89)"><stop stop-color="#141414"/><stop offset="1" stop-color="#232323"/></radialGradient></defs><style>.a{filter:url(#f1)}.b{fill:url(#g1);stroke:#232323;stroke-linejoin:round;stroke-width:.8}.c{fill:#fff;stroke:#232323;stroke-width:.8}.d{fill:url(#g2);stroke:#232323;stroke-width:.8}.e{fill:url(#g3);stroke:#232323;stroke-linejoin:round;stroke-width:.8}</style><path class="a" d="m22.5 5c-0.9 0-1.6 0.8-1.6 0.8l-8.4 29.3 4.8 47.9q-0.6 0.5-1.1 1.2-0.6 0.7-0.9 1.5-0.4 0.8-0.6 1.6-0.1 0.8-0.1 1.7 0 0.7 0.1 1.4 0.1 0.7 0.4 1.4 0.2 0.7 0.6 1.3 0.4 0.6 0.9 1.2l-12.8 28.3q2.2 1.1 4.4 2.1 2.3 0.9 4.7 1.5 2.3 0.6 4.7 0.9 2.5 0.3 4.9 0.3 2.4 0 4.9-0.3 2.4-0.3 4.7-0.9 2.4-0.6 4.7-1.5 2.2-1 4.4-2.1l-12.8-28.3q0.5-0.6 0.9-1.2 0.4-0.6 0.6-1.3 0.3-0.7 0.4-1.4 0.1-0.7 0.1-1.4 0-0.9-0.1-1.7-0.2-0.8-0.6-1.6-0.3-0.8-0.9-1.5-0.5-0.7-1.1-1.2l4.8-47.9-8.4-29.3c0 0-0.7-0.8-1.6-0.8z"/><path class="b" d="m18.9 89l-15.1 33.6q2.2 1.1 4.4 2.1 2.3 0.9 4.7 1.5 2.3 0.6 4.7 0.9 2.5 0.3 4.9 0.3 2.4 0 4.9-0.3 2.4-0.3 4.7-0.9 2.4-0.6 4.7-1.5 2.2-1 4.4-2.1l-15.1-33.6h-3.6z"/><path fill-rule="evenodd" class="c" d="m22.5 5c-0.9 0-1.6 0.8-1.6 0.8l-8.4 29.3 4.1 40.6h11.8l4.1-40.6-8.4-29.3c0 0-0.7-0.8-1.6-0.8z"/><path fill-rule="evenodd" class="d" d="m16.6 75.7l1 9.7 4.9-0.2 4.9 0.2 1-9.7z"/><path class="e" d="m30.4 89q0 1.6-0.6 3-0.6 1.5-1.7 2.6-1.1 1.1-2.6 1.7-1.4 0.6-3 0.6-1.6 0-3-0.6-1.5-0.6-2.6-1.7-1.1-1.1-1.7-2.6-0.6-1.4-0.6-3 0-1.6 0.6-3 0.6-1.5 1.7-2.6 1.1-1.1 2.6-1.7 1.4-0.6 3-0.6 1.6 0 3 0.6 1.5 0.6 2.6 1.7 1.1 1.1 1.7 2.6 0.6 1.4 0.6 3z"/></svg>