<svg version="1.2" xmlns="http://www.w3.org/2000/svg" viewBox="0 0 27 270" width="27" height="270"><defs><filter x="-50%" y="-50%" width="200%" height="200%" id="f1"> <feGaussianBlur stdDeviation="2.6"/> </filter><linearGradient id="P" gradientUnits="userSpaceOnUse"/><linearGradient id="g1" x2="1" href="#P" gradientTransform="matrix(0,41.809,-5.238,0,13.501,134)"><stop stop-color="#141414"/><stop offset="1" stop-color="#1e1e1e"/></linearGradient><radialGradient id="g2" cx="0" cy="0" r="1" href="#P" gradientTransform="matrix(4.337,0,0,4.337,13.501,134)"><stop stop-color="#191919"/><stop offset="1" stop-color="#0f0f0f"/></radialGradient><linearGradient id="g3" x2="1" href="#P" gradientTransform="matrix(8.397,-11.801,11.801,8.397,8.747,191.993)"><stop stop-color="#141414"/><stop offset="1" stop-color="#232323"/></linearGradient></defs><style>.a{filter:url(#f1)}.b{fill:#fff;stroke:#2d2d2d;stroke-linejoin:round;stroke-width:.8}.c{fill:url(#g1);stroke:#2d2d2d;stroke-linejoin:round;stroke-width:.8}.d{fill:url(#g2);stroke:#232323;stroke-linejoin:round;stroke-width:.8}.e{fill:url(#g3);stroke:#2d2d2d;stroke-linejoin:round;stroke-width:.8}</style><path class="a" d="m13.5 3.8l-4 13.5v103.4 1 7.9q-0.4 0.4-0.8 0.9-0.4 0.5-0.6 1.1-0.3 0.6-0.4 1.2-0.1 0.6-0.1 1.2 0 0.6 0.1 1.2 0.1 0.6 0.4 1.2 0.2 0.5 0.6 1 0.4 0.5 0.8 1v41.8q-0.9 0.5-1.6 1.2-0.7 0.7-1.2 1.6-0.5 0.9-0.7 1.9-0.3 0.9-0.3 2 0 1.5 0.6 2.9 0.6 1.5 1.7 2.6 1.1 1.1 2.5 1.7 1.4 0.6 3 0.6 1.6 0 3-0.6 1.4-0.6 2.5-1.7 1.1-1.1 1.7-2.6 0.6-1.4 0.6-2.9 0-1.1-0.3-2-0.2-1-0.7-1.9-0.5-0.9-1.2-1.6-0.7-0.7-1.6-1.2v-41.8q0.4-0.5 0.8-1 0.4-0.5 0.6-1 0.3-0.6 0.4-1.2 0.1-0.6 0.1-1.2 0-0.6-0.1-1.2-0.1-0.6-0.4-1.2-0.2-0.5-0.6-1-0.4-0.5-0.8-1v-7.9-1-103.4z"/><path class="b" d="m13.5 3.8l-4 13.5v104.4h8v-104.4z"/><path class="c" d="m9.5 120.7v63.6h4 4v-63.6z"/><path class="d" d="m19.4 134c0 3.3-2.6 5.9-5.9 5.9-3.3 0-5.9-2.6-5.9-5.9 0-3.3 2.6-5.9 5.9-5.9 3.3 0 5.9 2.6 5.9 5.9z"/><path class="e" d="m21.3 186.9q0 1.5-0.6 2.9-0.6 1.5-1.7 2.6-1.1 1.1-2.5 1.7-1.4 0.6-3 0.6-1.6 0-3-0.6-1.4-0.6-2.5-1.7-1.1-1.1-1.7-2.6-0.6-1.4-0.6-2.9 0-1.6 0.6-3 0.6-1.5 1.7-2.6 1.1-1.1 2.5-1.7 1.4-0.5 3-0.6 1.6 0.1 3 0.6 1.4 0.6 2.5 1.7 1.1 1.1 1.7 2.6 0.6 1.4 0.6 3z"/></svg>