<svg version="1.2" xmlns="http://www.w3.org/2000/svg" viewBox="0 0 285 284" width="285" height="284"><defs><filter x="-50%" y="-50%" width="200%" height="200%" id="f1"> <feGaussianBlur stdDeviation="3"/> </filter></defs><style>.a{fill:#ff3506}.b{filter:url(#f1);fill:none;stroke:#000;stroke-width:3.9}.c{fill:none;stroke:#fff;stroke-width:3.9}.d{fill:none;stroke:#fff;stroke-width:2.2}</style><path fill-rule="evenodd" class="a" d="m142.5 18.1l-5.6-15.7h11.2c0 0-5.6 15.7-5.6 15.7z"/><path fill-rule="evenodd" class="a" d="m230.1 54.4l7.1-15.1 8 7.9c0 0-15.1 7.2-15.1 7.2z"/><path fill-rule="evenodd" class="a" d="m266.3 142l15.8-5.7v11.3c0 0-15.8-5.6-15.8-5.6z"/><path fill-rule="evenodd" class="a" d="m230.1 229.5l15.1 7.2-8 7.9c0 0-7.1-15.1-7.1-15.1z"/><path fill-rule="evenodd" class="a" d="m142.5 265.8l5.6 15.7-11.2 0.1c0 0 5.6-15.8 5.6-15.8z"/><path fill-rule="evenodd" class="a" d="m54.9 229.5l-7.1 15.2-8-8c0 0 15.1-7.2 15.1-7.2z"/><path fill-rule="evenodd" class="a" d="m18.7 142l-15.8 5.6v-11.2c0 0 15.8 5.6 15.8 5.6z"/><path fill-rule="evenodd" class="a" d="m54.9 54.4l-15.1-7.1 8-8c0 0 7.1 15.1 7.1 15.1z"/><path fill-rule="evenodd" class="b" d="m144.9 192l23.3 6.4c0-5.2 0.5-7.6-0.7-8.7-2.1-1.8-17.4-13.9-17.4-13.9 0 0-1.7-1.9-2.1-3-0.4-1.2-0.1-3.7-0.1-3.7l0.9-27.9c0 0 42.9 14.1 44.8 14.7 1.8 0.6 4.4 1.7 4.5-1.3 0.1-3.3 0.9-6.6-1.7-8.6-13.8-11-34-26.7-46.6-36 0-13.4 0.3-27.5-7.6-36.8-7.9 9.3-7.6 23.4-7.6 36.8-12.5 9.3-32.7 25-46.5 36-2.5 2-1.7 5.3-1.6 8.6 0 3 2.6 2 4.5 1.3 1.8-0.6 44.6-14.7 44.6-14.7l0.9 27.9c0 0 0.3 2.5-0.1 3.7-0.3 1.1-2.1 3-2.1 3 0 0-15.3 12.1-17.3 13.9-1.2 1.1-0.7 3.5-0.7 8.7l23.2-6.4 2.7 3.8z"/><path fill-rule="evenodd" class="c" d="m145.2 192l23.3 6.4c0-5.2 0.5-7.6-0.7-8.7-2.1-1.8-17.4-13.9-17.4-13.9 0 0-1.7-1.9-2.1-3-0.4-1.2-0.1-3.7-0.1-3.7l0.9-27.9c0 0 42.9 14.1 44.8 14.7 1.8 0.6 4.4 1.7 4.5-1.3 0.1-3.3 0.9-6.6-1.7-8.6-13.8-11-34-26.7-46.6-36 0-13.4 0.3-27.5-7.6-36.8-7.9 9.3-7.6 23.4-7.6 36.8-12.5 9.3-32.7 25-46.5 36-2.5 2-1.7 5.3-1.6 8.6 0 3 2.6 2 4.5 1.3 1.8-0.6 44.6-14.7 44.6-14.7l0.9 27.9c0 0 0.3 2.5-0.1 3.7-0.3 1.1-2.1 3-2.1 3 0 0-15.3 12.1-17.3 13.9-1.2 1.1-0.7 3.5-0.7 8.7l23.2-6.4 2.7 3.8z"/><path fill-rule="evenodd" class="d" d="m283.2 142.2c0 77.7-63 140.7-140.7 140.7-77.7 0-140.7-63-140.7-140.7 0-77.8 63-140.8 140.7-140.8 77.7 0 140.7 63 140.7 140.8z"/></svg>